<svg height="100%" width="100%" xmlns="http://www.w3.org/2000/svg" viewBox="0 0 1657.05 737.81"><path d="M615.24,177.71l-7.86,4.43c.35.53.7,1.06,1.06,1.58h0l7.75-4.42C615.87,178.77,615.55,178.24,615.24,177.71Zm48.27-93.42c-.44-2.28-1.62-4.42-2-6.71-1.23-6.73-5.16-9-11.26-6.41-1.27.55-2.77.61-4,1.26A63.86,63.86,0,0,0,637.15,78c-3.36,2.66-6.16,6-9.46,8.79-7.88,6.6-16.25,12.72-19.23,23.36a12.54,12.54,0,0,1-2.23,4c-5,6.52-10,13-15.08,19.44-4.85,6.1-9.83,12.11-14.8,18.12-7.18,8.68-14.34,17.37-21.62,26-4.22,5-8.77,9.71-13,14.72-11.73,14-23.29,28.1-35,42.07-5.2,6.19-10.81,12-16,18.25-6.59,7.91-12.94,16-19.32,24.1-8,10.16-16.84,19.86-23.75,30.74-5.78,9.06-9.28,19.56-13.85,29.39-5.45,11.69,1.44,22.84,14.43,23.69,8.9.57,17.78,1.14,26.49-1.64a8.92,8.92,0,0,1,4.13-.33c5.95,1.07,11.84,1.51,17.78-.18,1.58-.45,3.35-.17,5-.42,13.22-2,26.5-3.75,39.63-6.23,7.76-1.47,11.26-.43,15.51,6.23,6.18,9.68,7.19,20.68,6.7,31.44-.78,17.39-6.61,33.87-12,50.29-1.2,3.6-3.39,5.76-8.16,5.16a145.26,145.26,0,0,0-23.4-1.12c-10.45.37-20.93,1.2-31.3,2.57-16.73,2.2-33.39,4.95-50.06,7.55-14.89,2.31-29.73,4.92-44.64,7.05-16.58,2.37-33.11,5.43-50,4.93-3.39-.1-5.15-1.09-5.67-4.59-1.94-13.4-4.6-26.71-5.94-40.16a391.38,391.38,0,0,1-2.46-44.33c.4-28.91,1.9-57.8,2.78-86.7,1-32.52,4.06-65,.66-97.58-.83-7.9.82-16.25-4.39-23.52-2-2.86.58-4.7,3.29-5.28,12.52-2.68,25.06-5.33,37.63-7.78,8.48-1.65,17.09-2.65,25.52-4.52,10-2.22,19.86-5.36,29.9-7.53,7.46-1.61,15.15-2.13,22.68-3.45,11-1.92,22.29-3,32.7-6.57,7.82-2.7,15.7-3.59,23.57-5,10.05-1.85,20.23-1.78,30.44-1.11s18.61,4.2,23,14.28a34.83,34.83,0,0,0,2.13,3.61c1.63,2.76,3.53,2.49,5.85.76,3.78-2.81,5.1-6.75,5.84-11.14a14,14,0,0,1,2-5.33c3-4.57,2.56-16.9-1-21.06-10.8-12.62-25.26-17.73-41.13-18.68-12.5-.75-25.1-.13-37.65.34-10.44.38-20.91,1.06-31.29,2.27-14.5,1.71-28.92,4.08-43.4,6.07-6.07.83-12.2,1.23-18.26,2.13-11.58,1.72-23.13,3.68-34.7,5.51-10.85,1.71-21.74,3.25-32.56,5.1s-21.84,4.21-32.79,6q-24.94,4.2-49.94,8c-15.62,2.34-31,5.88-46.57,8.61-15.72,2.76-31.68,5.38-46.2,12.85-4.5,2.31-8.93,4.86-13.62,6.72-12.06,4.77-18.32,15.88-15.57,28.27,2.64,11.94,12,17.63,23.77,14.88q16.85-3.91,33.82-7.24c16-3.13,32.1-6.07,48.16-8.95,18.09-3.24,36.21-6.34,54.33-9.45.72-.13,1.53.28,2.86.55a39.23,39.23,0,0,0-2.06,4.74c-1.13,3.95-3,8-2.92,11.91.29,11.72,1.93,23.41,2.1,35.12.23,14.79-.54,29.59-.81,44.39-.18,9.23-.18,18.45-.37,27.68-.42,21.93-1.61,43.87-1.21,65.79.41,24,2.13,47.95,3.56,71.9.31,5.53,1.54,11,2.62,16.48,1.24,6.29,2.79,12.51,4.19,18.76.57,2.54.17,4.42-2.94,4.81-7.14.91-14.3,1.77-21.41,2.89-16.77,2.64-33.59,5-50.25,8.24-19.15,3.67-38.27,7.67-57.21,12.31a344.87,344.87,0,0,0-40,12.19c-6.41,2.42-11.75,7.66-17.54,11.66a2.5,2.5,0,0,0-.88,1.37c-1.51,6.18-3.7,12.26-2.44,18.82.86,4.44,2.55,8.39,6.86,10.41,4.94,2.31,10.07,1.65,15.14.24,9.53-2.64,19-5.67,28.61-7.87,15.37-3.51,30.88-6.36,46.29-9.69,16.35-3.53,32.55-7.89,49-10.81,18.52-3.27,37.28-5.3,55.92-8,4.79-.68,7.92.64,10.64,5.08a30.05,30.05,0,0,0,9.9,9.75,15.29,15.29,0,0,0,15.53.38c2.35-1.23,3.66-2,4-4.8.74-5.71,4.12-10.6,9.14-12.61,6.25-2.51,13.18-3.41,19.88-4.66,8.22-1.53,16.65-2.16,24.74-4.16,11.73-2.88,23.25-6.61,34.86-10,21.64-6.38,43.15-13.26,65-19,11.4-3,23.32-4,35-5.81,2.51-.4,3.87.69,2.87,3.39-1.28,3.49-2.48,7-4.07,10.38-7.34,15.49-14.69,31-22.27,46.35-5.84,11.86-12,23.58-18.1,35.3-4.89,9.37-10.09,18.58-14.89,28-3.48,6.82-6.5,13.87-9.81,20.77-4.47,9.35-9,18.66-13.5,28h22.59a28.35,28.35,0,0,1,2.55-2.73c.56-.53.66-1.52,1-2.27,4.36-8.57,8.5-17.25,13.15-25.65,6.69-12.07,13.87-23.86,20.6-35.91,6.18-11.07,12-22.31,18-33.48,7.82-14.6,16.05-29,23.3-43.86,6.12-12.6,11.43-25.63,16.46-38.71,5.35-13.9,10.19-28,14.77-42.18a132.58,132.58,0,0,0,5.13-22c1.76-12.31,2.5-24.73.49-37.14-2.63-16.3-7.28-31.59-21.51-41.9-7.23-5.24-15.34-8.37-24.31-6.75q-29,5.24-57.93,11.33a76,76,0,0,1-24,1.49c-3-.32-4.05-1.85-2.16-4.54a46.68,46.68,0,0,1,4.12-5.25c7.06-7.5,14.24-14.89,21.28-22.39,3.72-4,7.09-8.27,10.92-12.12,12.6-12.65,25.35-25.15,38-37.74,6.43-6.39,12.64-13,19.18-19.26,6.8-6.52,14-12.6,20.8-19.14s13.43-13.72,20.29-20.44c5.87-5.76,12.23-11,17.89-17,4.87-5.11,8.48-11.5,13.67-16.2,10.64-9.63,17-22.36,25.1-33.72,4.52-6.31,7.09-14.13,9.87-21.51C665.11,90.24,664,87,663.51,84.29Zm915,63.83a214.82,214.82,0,0,0-20.3-7.49c-7.73-2.23-15.72-3.59-23.56-5.46-4.19-1-8.27-2.53-12.49-3.36-6.15-1.21-12.36-2.2-18.59-2.94-15.64-1.86-31.31-3.44-47-5.3-13.4-1.59-26.76-3.47-40.16-5.09-4.1-.49-8.25-.51-12.38-.78-8.45-.57-16.92-.91-25.33-1.82-5.72-.63-11.34-2.21-17-3.09-4.48-.7-9-.85-13.55-1.48-11.81-1.66-23.17-6.22-35.36-5.52a10.42,10.42,0,0,1-2.84-.62c-6.22-1.45-12.37-3.26-18.65-4.26-9.48-1.5-19-2.46-28.58-3.61-7.29-.88-14.62-1.53-21.87-2.66-1.75-.28-3.2-2.2-4.89-3.17-1.4-.8-3.79-2.25-4.31-1.79-3,2.62-4.28.27-5.64-1.57-1.89-2.58-5.45-3.06-6.46-.24-2.1,5.87-5.42,5.84-10,3.29a5.7,5.7,0,0,0-2-.37c-7.87-.93-15.74-2-23.62-2.75-5.12-.51-10.27-.79-15.41-1-12.67-.47-25.36-1.38-38-1.13-19.64.37-39.26,1.6-58.89,2.36a22.89,22.89,0,0,1-6.59-1,4,4,0,0,1-2.21-2.1c-3-6.83-5.4-14-8.91-20.53a40.18,40.18,0,0,0-19-18.18c-9-4-18.67-5-28.18-4.38C984.44,43.48,962.12,45,940,47.91c-17.76,2.33-35.36,6.27-52.82,10.39-15.86,3.74-31.37,9-47.16,13a271.13,271.13,0,0,0-35.5,12.15c-8.31,3.43-17.16,4.9-26,1.12-1.21-.52-2.78-.2-4.19-.26-.06.28-.11.57-.19.85.88.59,1.75,1.19,2.62,1.79-.11.32-.22.64-.34,1l-10.66-1.4c0-.34,0-.67,0-1l3.51-2.12L769,82c-1.57.16-3.71-.28-4.6.58-4.11,4-9.64,3.33-14.39,4.22-14.7,2.72-26.24,10.79-36.91,20.32S692.15,126.68,682,136.78c-9.77,9.73-19.2,19.79-28.67,29.81-1.87,2-3,4.61-4.78,6.73-5.38,6.56-11,12.9-16.3,19.55-3.87,4.89-7.22,9.95-13.83,12-2.67.82-4.8,3.9-6.82,6.26-3.4,4-6.39,8.34-9.8,12.33-3,3.54-3.54,9-.1,12.12a74.12,74.12,0,0,0,11,7.79c2.74,1.71,5.83,2.85,8.7,4.38a6.83,6.83,0,0,1,2.8,2.32c2,3.54,5,5,8.83,5.59,1,.16,2,.91,3,1.18,2.41.63,5.29,2.25,7.19,1.49,5.78-2.28,11.35-5.09,13.91-11.67,2.94-7.56,8.79-14.07,8-22.94,0-.36.33-.75.52-1.13,3.21-6.3,6.39-12.63,9.7-18.89a14.37,14.37,0,0,1,2.58-2.79l1.1.52c-.71,4-1.38,8.06-2.13,12.08-2.42,12.88-5,25.72-7.25,38.62-2.12,12.21-3.84,24.48-5.79,36.72-1.51,9.49-3.61,18.92-4.56,28.47-2.24,22.64-4.23,45.32-5.82,68-1.54,21.87-3,43.78-3.46,65.7-.49,25.83.05,51.7.46,77.54.2,12.71,1,25.41,1.8,38.1.1,1.53,1.4,3.75,2.7,4.26,2,.77,4.38.41,6.61.36,3.06-.06,4.6-1.42,5.1-4.76.44-2.89,1.45-6.33,3.45-8.19,3.33-3.09,4.18-6.28,3.47-10.44a25.26,25.26,0,0,1-.3-6.26c1.22-15.43,2.4-30.87,3.86-46.28,1.58-16.67,3.5-33.31,5.18-50,1.34-13.16,2.5-26.35,3.88-39.51,1.86-17.64,3.76-35.26,5.88-52.87.31-2.62,1.78-5.14,2.92-7.62,2.35-5.13,5.23-10.07,7.14-15.36,1.22-3.44,2.56-6.25,5.8-8.19,3-1.79,5.7-4,8.52-6.05,6-4.29,11.81-8.7,17.87-12.82,2.28-1.54,5-2.36,7.56-3.57,11.39-5.49,22.75-11,34.17-16.48,2.89-1.37,6-2.24,8.91-3.61,9.06-4.27,18-8.75,27.11-13,2.93-1.36,4.2-.22,3.67,3s-1.18,6.59-1.93,9.85c-3.24,14.13-6.32,28.3-9.88,42.35-4.11,16.18-8.64,32.25-13,48.36-4.51,16.55-9.45,33-13.46,49.65-3.32,13.8-6.14,27.77-8.1,41.82-2.08,14.91-3.35,30-4.17,45-1.35,25.07.68,49.51,13.57,72.13,4.68,8.22,13.88,8.2,20.35,6,1.18-.41,2.87-2.37,2.68-3.26-1-4.51,1.7-6.13,5-8,1.52-.86,3.52-3.36,3.18-4.47-.58-1.9-2.71-3.43-4.39-4.88-3.81-3.28-9.33-5.66-11.3-9.77-4-8.41-7.44-17.54-8.85-26.71-3.42-22.19-2.22-44.55.77-66.76,1.25-9.25,3.06-18.44,4.78-27.62,1.43-7.67,2.74-15.39,4.75-22.91,2.65-9.89,6-19.59,8.93-29.41,5.37-18.14,11-36.23,15.86-54.49,4.34-16.13,7.92-32.47,11.8-48.73,1-4.32,1.44-8.86,3-12.94a17.7,17.7,0,0,1,6-8c4.1-2.7,9-4.14,13.53-6.24,9.32-4.33,18.64-8.68,27.88-13.18a10.74,10.74,0,0,0,4-3.6A27.71,27.71,0,0,1,902,222.33c.85-.27,1.49-1.24,2.23-1.88-1-.54-2.05-1.64-3-1.53-9.94,1.21-19.91,2.35-29.78,4-8.21,1.39-16.27,3.67-24.46,5.16-6.22,1.12-6.9.07-6.42-6.29,1.27-17,1.9-34.21-2.64-50.81-3.62-13.22-8.71-26-13.48-38.92-1.09-2.92-.9-4.52,1.88-5.62,6.72-2.67,13.37-5.56,20.23-7.8,7.12-2.31,14.52-3.75,21.67-6s14.23-5.66,21.6-7.35c17.51-4,35.1-8,52.83-10.75C959.3,92,976.19,90.79,993,89.14c3.88-.39,7.84-.06,11.76-.06l.54,1.22c-4.21,2.39-3.1,4.9-.95,7.68a4.83,4.83,0,0,1,.54,3.42,57.11,57.11,0,0,1-1.79,6.16c-5.42.6-5.4.83-2.47,6.92.79,1.66.27,4,.19,6-.1,3.24-.49,6.48-.48,9.72a50,50,0,0,0,.84,5.76c.62,4.89,3.27,10.11,8,11.19,10.06,2.32,7.2,4.06,13.66-3.53.18-.21.33-.51.56-.61,1.81-.78,3.64-1.53,5.46-2.28.33,1.55,1,3.11.93,4.65-.8,19.36-6.74,37.44-14.1,55.12C1013,206.78,1010,212.86,1007,219c-3.23,6.53-6.38,13.11-10,19.4-6.22,10.7-12.75,21.23-19.27,31.76C971.85,279.46,966,288.78,960,298c-5.42,8.27-11.12,16.36-16.7,24.53q-3.56,5.22-7.1,10.46l-1.39-.73a13.27,13.27,0,0,1,0-2.75c.8-3.65,1.88-7.24,2.55-10.91,3.73-20.28,7.15-40.62,11.14-60.85,2.28-11.58,5.33-23,8.25-34.48,2.57-10.12,5.4-20.17,8.17-30.24,1.1-4,2.84-7.83,3.47-11.86,2-13.1,6.55-25.43,11.09-37.77.57-1.54,2.15-2.84,2.31-4.36a43.42,43.42,0,0,1,7.5-20.91,7.41,7.41,0,0,0,1.06-4.79,88.68,88.68,0,0,0-2-11.54c-.73-3-3.84-3.64-5.62-.91s-4.23,3.28-7,3.8a12.89,12.89,0,0,0-4.58,1.75c-7.53,5-10.65,12.68-12.83,21-.68,2.56-1.23,5.16-2.08,7.66-3.73,10.93-7.93,21.72-11.23,32.78-4.88,16.38-9.38,32.88-13.62,49.43-3.49,13.63-6.49,27.4-9.48,41.15C917.81,277.21,913.8,296,910,314.92q-4.11,20.7-7.46,41.56c-1.82,11.43-2.93,23-4.69,34.4a34.21,34.21,0,0,1-3.49,10.67c-5.11,9.55-7.44,19.8-8,30.41-.13,2.38,2.42,4.88,3.65,7.36.85,1.7,2.23,3.47,2.22,5.2,0,8.37-.71,16.74-.74,25.12-.07,14.39.12,28.78.3,43.17.12,9.63.08,19.27.72,28.86.6,9,1.72,18,3.14,26.93.89,5.61,0,11.68,4.42,16.6,3.4,3.77,4.65,4,7.46-.16,1.53-2.26,3.8-4,5.33-6.29,1.13-1.66,2.31-3.76,2.28-5.65-.11-8.47-1.07-16.94-1-25.39.33-23.85,1-47.69,1.6-71.54.1-3.91,0-7.84.27-11.73.38-4.93,3.12-6.29,7.41-4,5.29,2.84,10.23,6.14,16.08,8.14C947,471.11,954,475.12,961,478.67c2.21,1.11,4,3,6.19,4.2,5.95,3.23,12,6.19,18,9.4,2.31,1.24,4.32,3,6.65,4.24,5.39,2.77,11.73,4.36,16.19,8.18a365.15,365.15,0,0,1,31,29.54c6.83,7.39,11.85,16.42,18.1,24.39,11.45,14.63,18.67,31.51,26.51,48.1,4.46,9.42,6.87,19.61,12.1,28.78.71,1.25,1.39,2.51,2,3.79.24.46.48.92.71,1.38s.31.62.46.93h28c-3-7.29-5.59-14.75-8.6-22-2.93-7.09-4.86-14.59-7.62-21.75-3.12-8.09-6.64-16-10-24-7.56-17.83-16.36-35-27.52-50.88-5.09-7.22-10.28-14.39-15.89-21.21-3.61-4.39-8-8.17-12.17-12.07a176.1,176.1,0,0,0-13.73-12.07c-6.87-5.16-14.12-9.84-21.26-14.64a67,67,0,0,0-7.76-4.63c-8-3.93-16.14-7.51-24-11.58-5.18-2.68-10-6.06-15.06-9-2.13-1.23-4.69-1.81-6.68-3.21-4.65-3.29-8.73-7.51-13.66-10.24-7.48-4.14-12.16-10.59-16.4-17.47a10.32,10.32,0,0,1-1-7.22,70.52,70.52,0,0,1,5-13.7c2.89-5.84,6.3-11.44,9.66-17q6.22-10.39,12.76-20.61c1.64-2.56,3.69-4.86,5.47-7.33,4.3-6,8.51-12,12.83-18,4.69-6.5,9.56-12.87,14.14-19.45,5.36-7.71,10.49-15.58,15.71-23.39,3.14-4.7,6.42-9.32,9.35-14.15,4.31-7.09,8.43-14.31,12.52-21.53,2.11-3.73,4.09-7.53,5.9-11.41,1.63-3.47,2.07-7.59,6.21-9.49.77-.35,1.12-1.77,1.52-2.75,2.87-7.07,5.68-14.18,8.57-21.25,2.44-6,5.06-11.86,7.43-17.86,1.74-4.39,3-9,4.84-13.32,1.55-3.68,3.64-7.14,5.45-10.72.16-.31-.08-.81-.06-1.22.37-5.25.46-10.54,1.2-15.73.92-6.42,1.64-6.82,8-7.25,17.42-1.18,34.83-2.44,52.26-3.45,6.64-.38,13.37.33,20-.28,16.26-1.5,32.13.56,47.94,4.07,2.58.57,3.32,1.62,3,3.91-.9,5.9-1.66,11.84-2.83,17.7-.51,2.53-2.25,4.82-2.77,7.35-.91,4.48-1.21,9.09-2,13.6-2.78,15.75-5.75,31.48-8.43,47.25-.42,2.46.35,5.11.47,7.68a24.17,24.17,0,0,1,0,6.19c-1.2,5.23-3.09,10.32-4.07,15.58a97.12,97.12,0,0,0-1.15,14.08c-.14,3.78.1,7.56-2.76,10.63a2.43,2.43,0,0,0-.42,2c1.14,3.92,0,6.76-3.72,8.07.79,2,2,3.64,2,5.28-.1,6.35.26,12.66-2.47,18.88-1.89,4.29-3.44,9.74-2.41,14a27.59,27.59,0,0,1,.1,12.19c-1,5.4-2.76,10.68-3.76,16.08-.49,2.68,0,5.53,0,8.31-.23,1.28-2.27,2.66-2.28,4a65.9,65.9,0,0,0,1.3,11.32c.5,3,2.78,6.16-1.64,8.41-2.29,1.17-2,6.2,0,8.08.77.71,1.84,1.61,1.9,2.48.22,3.29.09,6.6.09,10.11h-4.15a8.22,8.22,0,0,0,.59,2.66c2.83,4.1,4.38,8-.09,12.18-1.79,1.67-.83,3.5,1.64,4.39,1.12.4,2.86,1.42,2.86,2.16,0,3.54-.62,7.08-.82,10.62-.29,5.11-.56,10.22-.56,15.33,0,4.29.39,8.57.63,12.85.13,2.2.26,4.41.52,6.6.28,2.42,1.85,5.89.82,7-1.75,1.85-1,3-.75,4.71.59,5,1.11,10.1,1.52,15.16.18,2.15-.31,4.39.06,6.5,1.05,6,3.56,12,3.37,18-.38,12.24,3.11,23.71,5.21,35.46.48,2.71,1.59,5.3,2.1,8,1,5.2,1.56,10.48,2.68,15.65a6,6,0,0,0,3,3.91c2.91,1.09,3.44,3,3.82,5.73a90.86,90.86,0,0,0,3,13.81c1,3.48,3.22,3.72,5.92,1.28a40.48,40.48,0,0,1,4.87-3.91c4.63-3.07,4.58-8.13,1.06-12.45a19.66,19.66,0,0,1-4.35-10.76c-.37-8.62.85-17.31.58-25.94-.25-7.71-1.63-15.38-2.47-23.08a24.58,24.58,0,0,1,.05-3.32c.29-9.31.79-18.61.79-27.92,0-11.38-.61-22.76-.64-34.15,0-7.66.46-15.33.78-23,.2-4.81.54-9.62.76-14.43a40.9,40.9,0,0,0-.07-4.14c-.16-2.76-.72-5.54-.48-8.25,1.25-14,2.71-28,4.09-42,1.43-14.54,2.69-29.11,4.33-43.63q2.13-18.92,5-37.75c2.58-17,5.51-33.94,8.25-50.91,1.25-7.8,2.36-15.61,3.52-23.42.73-5,1.42-9.93,2.13-14.89a1.57,1.57,0,0,1,.25-.79c4.85-5.41,2.42-12.54,4.41-18.65,1.11-3.43,1.15-7.21,2.26-10.65,1.51-4.71,3.57-9.25,5.39-13.86,1.14-2.9.94-5-3-4.48,2-5.27,3.84-6.27,6.9-3.79.66-3.07,1.31-6.36,5.29-6.45a72.73,72.73,0,0,1,10.42.66c8.68,1.08,17.31,2.94,26,3.32,11.33.5,21.88,4.16,32.78,6.42,5.8,1.21,11.5,3.63,17.32,3.94,8.36.44,15.36,5.56,23.69,5.67,1.4,0,3.25,1.43,4.08,2.71,3.31,5.12,8.51,6.89,13.89,8.32,4.41,1.17,8.91,2,13.4,2.89,3.64.69,7.37,1,11,1.76,5.92,1.32,11.48,4.32,18,2.81,5.52-1.28,11.79-.74,16.64-3.17,6.26-3.13,11.42-8.43,17.08-12.75,1-.75,2.15-1.28,3.19-1.94,1.75-1.1,3.43-2.33,5.24-3.33a29.05,29.05,0,0,1,6.3-3c4-1.05,8.38-1.12,12.26-2.52,7.31-2.62,14.73-2.21,22.25-2.33,6.36-.1,13.1-.22,18.91-2.38a28.73,28.73,0,0,1,13.3-1.82c5.86.57,11.67,1.62,17.49,2.5.16,0,.26.42.53.89a6.54,6.54,0,0,0-2.32.81,40.67,40.67,0,0,0-3.1,3.57c1.39.65,2.73,1.62,4.19,1.88,2.32.42,5.17-.39,7,.68,4.48,2.62,8.66,1,13,.15.87-.18,2.34-.91,2.31-1.29a3.83,3.83,0,0,0-1.38-2.74c-4.63-2.72-9.4-5.19-14.07-7.85a28.76,28.76,0,0,1-3.43-2.67l.61-1.17a28.42,28.42,0,0,1,3.93.37c8.35,2,16.66,4.06,25,5.88,1.24.27,2.77-.74,4.17-1.15C1580.12,150.27,1579.56,148.55,1578.49,148.12ZM819,234.9a5.88,5.88,0,0,1-3.32,4c-8.66,2.94-17.46,5.49-26.19,8.21q-20.14,6.27-40.26,12.6c-4.65,1.47-9.18,3.35-13.88,4.58-2.22.59-4.45,1.15-6.69,1.71q-5,1.25-10.06,2.43l-3.37.78-6.73,1.54a2.79,2.79,0,0,1-2.79-.56,2.42,2.42,0,0,1-.27-.36,3.56,3.56,0,0,1-.26-2.45q1.13-6.06,2.32-12.11t2.38-12.09c.05-.27.12-.54.18-.81.14-.53.28-1.07.41-1.6l.18-.81c.33-1.8.67-3.61,1-5.41q1-5.41,2-10.83c.33-1.81.65-3.61,1-5.42.53-3,.59-6.13,1.22-9.13s1.21-5.71,1.83-8.57c1.85-8.56,3.77-17.12,5.58-25.69a41.89,41.89,0,0,0,.91-7.49,22.47,22.47,0,0,1,.22-2.53q.12-.81.3-1.59a21.25,21.25,0,0,1,.66-2.22,19,19,0,0,1,4.32-6.8l.52-.53a30.87,30.87,0,0,1,3.47-2.91h0c.42-.31.84-.6,1.27-.88.87-.58,1.77-1.13,2.7-1.66,2.36-1.35,4.15-1.55,5.31-.69l.26.23c.87.85,1.3,2.4,1.28,4.61,0,1.53-.19,3.07-.29,4.6-1,7.17,2.65,13,5.6,19a5.5,5.5,0,0,0,.75,1.16c2,2.45,5.78,2.92,10.12,1.39,2.31-.82,4.86-1.91,6.46-3.65,8.31-9,16.33-18.26,19.36-30.74a5.74,5.74,0,0,1,1.33-2.32l.34-.36a11.92,11.92,0,0,1,3.61-2.5c.91-.39,3,.77,4.31,2,.09.08.17.17.25.25a4.31,4.31,0,0,1,.41.5c.72,1,1.43,2,2.14,3s1.38,2,2,3,1.33,2.05,2,3.09,1.27,2.08,1.88,3.14,1.19,2.14,1.76,3.23l.84,1.64c.53,1.11,1,2.23,1.54,3.38.74,1.71,1.43,3.47,2,5.29q1.61,4.73,2.86,9.48a169,169,0,0,1,4.29,22.39c.81,6.45,1.29,13,1.52,19.52A111,111,0,0,1,819,234.9Z" style="fill:#FFFFFF"/><path d="M1578.49,148.12a214.82,214.82,0,0,0-20.3-7.49c-7.73-2.23-15.72-3.59-23.56-5.46-4.19-1-8.27-2.53-12.49-3.36-6.15-1.21-12.36-2.2-18.59-2.94-15.64-1.86-31.31-3.44-47-5.3-13.4-1.59-26.76-3.47-40.16-5.09-4.1-.49-8.25-.51-12.38-.78-8.45-.57-16.92-.91-25.33-1.82-5.72-.63-11.34-2.21-17-3.09-4.48-.7-9-.85-13.55-1.48-11.81-1.66-23.17-6.22-35.36-5.52a10.42,10.42,0,0,1-2.84-.62c-6.22-1.45-12.37-3.26-18.65-4.26-9.48-1.5-19-2.46-28.58-3.61-7.29-.88-14.62-1.53-21.87-2.66-1.75-.28-3.2-2.2-4.89-3.17-1.4-.8-3.79-2.25-4.31-1.79-3,2.62-4.28.27-5.64-1.57-1.89-2.58-5.45-3.06-6.46-.24-2.1,5.87-5.42,5.84-10,3.29a5.7,5.7,0,0,0-2-.37c-7.87-.93-15.74-2-23.62-2.75-5.12-.51-10.27-.79-15.41-1-12.67-.47-25.36-1.38-38-1.13-19.64.37-39.26,1.6-58.89,2.36a22.89,22.89,0,0,1-6.59-1,4,4,0,0,1-2.21-2.1c-3-6.83-5.4-14-8.91-20.53a40.18,40.18,0,0,0-19-18.18c-9-4-18.67-5-28.18-4.38C984.44,43.48,962.12,45,940,47.91c-17.76,2.33-35.36,6.27-52.82,10.39-15.86,3.74-31.37,9-47.16,13a271.13,271.13,0,0,0-35.5,12.15c-8.31,3.43-17.16,4.9-26,1.12-1.21-.52-2.78-.2-4.19-.26-.06.28-.11.57-.19.85.88.59,1.75,1.19,2.62,1.79-.11.32-.22.64-.34,1l-10.66-1.4c0-.34,0-.67,0-1l3.51-2.12L769,82c-1.57.16-3.71-.28-4.6.58-4.11,4-9.64,3.33-14.39,4.22-14.7,2.72-26.24,10.79-36.91,20.32S692.15,126.68,682,136.78c-9.77,9.73-19.2,19.79-28.67,29.81-1.87,2-3,4.61-4.78,6.73-5.38,6.56-11,12.9-16.3,19.55-3.87,4.89-7.22,9.95-13.83,12-2.67.82-4.8,3.9-6.82,6.26-3.4,4-6.39,8.34-9.8,12.33-3,3.54-3.54,9-.1,12.12a74.12,74.12,0,0,0,11,7.79c2.74,1.71,5.83,2.85,8.7,4.38a6.83,6.83,0,0,1,2.8,2.32c2,3.54,5,5,8.83,5.59,1,.16,2,.91,3,1.18,2.41.63,5.29,2.25,7.19,1.49,5.78-2.28,11.35-5.09,13.91-11.67,2.94-7.56,8.79-14.07,8-22.94,0-.36.33-.75.52-1.13,3.21-6.3,6.39-12.63,9.7-18.89a14.37,14.37,0,0,1,2.58-2.79l1.1.52c-.71,4-1.38,8.06-2.13,12.08-2.42,12.88-5,25.72-7.25,38.62-2.12,12.21-3.84,24.48-5.79,36.72-1.51,9.49-3.61,18.92-4.56,28.47-2.24,22.64-4.23,45.32-5.82,68-1.54,21.87-3,43.78-3.46,65.7-.49,25.83.05,51.7.46,77.54.2,12.71,1,25.41,1.8,38.1.1,1.53,1.4,3.75,2.7,4.26,2,.77,4.38.41,6.61.36,3.06-.06,4.6-1.42,5.1-4.76.44-2.89,1.45-6.33,3.45-8.19,3.33-3.09,4.18-6.28,3.47-10.44a25.26,25.26,0,0,1-.3-6.26c1.22-15.43,2.4-30.87,3.86-46.28,1.58-16.67,3.5-33.31,5.18-50,1.34-13.16,2.5-26.35,3.88-39.51,1.86-17.64,3.76-35.26,5.88-52.87.31-2.62,1.78-5.14,2.92-7.62,2.35-5.13,5.23-10.07,7.14-15.36,1.22-3.44,2.56-6.25,5.8-8.19,3-1.79,5.7-4,8.52-6.05,6-4.29,11.81-8.7,17.87-12.82,2.28-1.54,5-2.36,7.56-3.57,11.39-5.49,22.75-11,34.17-16.48,2.89-1.37,6-2.24,8.91-3.61,9.06-4.27,18-8.75,27.11-13,2.93-1.36,4.2-.22,3.67,3s-1.18,6.59-1.93,9.85c-3.24,14.13-6.32,28.3-9.88,42.35-4.11,16.18-8.64,32.25-13,48.36-4.51,16.55-9.45,33-13.46,49.65-3.32,13.8-6.14,27.77-8.1,41.82-2.08,14.91-3.35,30-4.17,45-1.35,25.07.68,49.51,13.57,72.13,4.68,8.22,13.88,8.2,20.35,6,1.18-.41,2.87-2.37,2.68-3.26-1-4.51,1.7-6.13,5-8,1.52-.86,3.52-3.36,3.18-4.47-.58-1.9-2.71-3.43-4.39-4.88-3.81-3.28-9.33-5.66-11.3-9.77-4-8.41-7.44-17.54-8.85-26.71-3.42-22.19-2.22-44.55.77-66.76,1.25-9.25,3.06-18.44,4.78-27.62,1.43-7.67,2.74-15.39,4.75-22.91,2.65-9.89,6-19.59,8.93-29.41,5.37-18.14,11-36.23,15.86-54.49,4.34-16.13,7.92-32.47,11.8-48.73,1-4.32,1.44-8.86,3-12.94a17.7,17.7,0,0,1,6-8c4.1-2.7,9-4.14,13.53-6.24,9.32-4.33,18.64-8.68,27.88-13.18a10.74,10.74,0,0,0,4-3.6A27.71,27.71,0,0,1,902,222.33c.85-.27,1.49-1.24,2.23-1.88-1-.54-2.05-1.64-3-1.53-9.94,1.21-19.91,2.35-29.78,4-8.21,1.39-16.27,3.67-24.46,5.16-6.22,1.12-6.9.07-6.42-6.29,1.27-17,1.9-34.21-2.64-50.81-3.62-13.22-8.71-26-13.48-38.92-1.09-2.92-.9-4.52,1.88-5.62,6.72-2.67,13.37-5.56,20.23-7.8,7.12-2.31,14.52-3.75,21.67-6s14.23-5.66,21.6-7.35c17.51-4,35.1-8,52.83-10.75C959.3,92,976.19,90.79,993,89.14c3.88-.39,7.84-.06,11.76-.06l.54,1.22c-4.21,2.39-3.1,4.9-.95,7.68a4.83,4.83,0,0,1,.54,3.42,57.11,57.11,0,0,1-1.79,6.16c-5.42.6-5.4.83-2.47,6.92.79,1.66.27,4,.19,6-.1,3.24-.49,6.48-.48,9.72a50,50,0,0,0,.84,5.76c.62,4.89,3.27,10.11,8,11.19,10.06,2.32,7.2,4.06,13.66-3.53.18-.21.33-.51.56-.61,1.81-.78,3.64-1.53,5.46-2.28.33,1.55,1,3.11.93,4.65-.8,19.36-6.74,37.44-14.1,55.12C1013,206.78,1010,212.86,1007,219c-3.23,6.53-6.38,13.11-10,19.4-6.22,10.7-12.75,21.23-19.27,31.76C971.85,279.46,966,288.78,960,298c-5.42,8.27-11.12,16.36-16.7,24.53q-3.56,5.22-7.1,10.46l-1.39-.73a13.27,13.27,0,0,1,0-2.75c.8-3.65,1.88-7.24,2.55-10.91,3.73-20.28,7.15-40.62,11.14-60.85,2.28-11.58,5.33-23,8.25-34.48,2.57-10.12,5.4-20.17,8.17-30.24,1.1-4,2.84-7.83,3.47-11.86,2-13.1,6.55-25.43,11.09-37.77.57-1.54,2.15-2.84,2.31-4.36a43.42,43.42,0,0,1,7.5-20.91,7.41,7.41,0,0,0,1.06-4.79,88.68,88.68,0,0,0-2-11.54c-.73-3-3.84-3.64-5.62-.91s-4.23,3.28-7,3.8a12.89,12.89,0,0,0-4.58,1.75c-7.53,5-10.65,12.68-12.83,21-.68,2.56-1.23,5.16-2.08,7.66-3.73,10.93-7.93,21.72-11.23,32.78-4.88,16.38-9.38,32.88-13.62,49.43-3.49,13.63-6.49,27.4-9.48,41.15C917.81,277.21,913.8,296,910,314.92q-4.11,20.7-7.46,41.56c-1.82,11.43-2.93,23-4.69,34.4a34.21,34.21,0,0,1-3.49,10.67c-5.11,9.55-7.44,19.8-8,30.41-.13,2.38,2.42,4.88,3.65,7.36.85,1.7,2.23,3.47,2.22,5.2,0,8.37-.71,16.74-.74,25.12-.07,14.39.12,28.78.3,43.17.12,9.63.08,19.27.72,28.86.6,9,1.72,18,3.14,26.93.89,5.61,0,11.68,4.42,16.6,3.4,3.77,4.65,4,7.46-.16,1.53-2.26,3.8-4,5.33-6.29,1.13-1.66,2.31-3.76,2.28-5.65-.11-8.47-1.07-16.94-1-25.39.33-23.85,1-47.69,1.6-71.54.1-3.91,0-7.84.27-11.73.38-4.93,3.12-6.29,7.41-4,5.29,2.84,10.23,6.14,16.08,8.14C947,471.11,954,475.12,961,478.67c2.21,1.11,4,3,6.19,4.2,5.95,3.23,12,6.19,18,9.4,2.31,1.24,4.32,3,6.65,4.24,5.39,2.77,11.73,4.36,16.19,8.18a365.15,365.15,0,0,1,31,29.54c6.83,7.39,11.85,16.42,18.1,24.39,11.45,14.63,18.67,31.51,26.51,48.1,4.46,9.42,6.87,19.61,12.1,28.78.71,1.25,1.39,2.51,2,3.79.24.46.48.92.71,1.38s.31.62.46.93h28c-3-7.29-5.59-14.75-8.6-22-2.93-7.09-4.86-14.59-7.62-21.75-3.12-8.09-6.64-16-10-24-7.56-17.83-16.36-35-27.52-50.88-5.09-7.22-10.28-14.39-15.89-21.21-3.61-4.39-8-8.17-12.17-12.07a176.1,176.1,0,0,0-13.73-12.07c-6.87-5.16-14.12-9.84-21.26-14.64a67,67,0,0,0-7.76-4.63c-8-3.93-16.14-7.51-24-11.58-5.18-2.68-10-6.06-15.06-9-2.13-1.23-4.69-1.81-6.68-3.21-4.65-3.29-8.73-7.51-13.66-10.24-7.48-4.14-12.16-10.59-16.4-17.47a10.32,10.32,0,0,1-1-7.22,70.52,70.52,0,0,1,5-13.7c2.89-5.84,6.3-11.44,9.66-17q6.22-10.39,12.76-20.61c1.64-2.56,3.69-4.86,5.47-7.33,4.3-6,8.51-12,12.83-18,4.69-6.5,9.56-12.87,14.14-19.45,5.36-7.71,10.49-15.58,15.71-23.39,3.14-4.7,6.42-9.32,9.35-14.15,4.31-7.09,8.43-14.31,12.52-21.53,2.11-3.73,4.09-7.53,5.9-11.41,1.63-3.47,2.07-7.59,6.21-9.49.77-.35,1.12-1.77,1.52-2.75,2.87-7.07,5.68-14.18,8.57-21.25,2.44-6,5.06-11.86,7.43-17.86,1.74-4.39,3-9,4.84-13.32,1.55-3.68,3.64-7.14,5.45-10.72.16-.31-.08-.81-.06-1.22.37-5.25.46-10.54,1.2-15.73.92-6.42,1.64-6.82,8-7.25,17.42-1.18,34.83-2.44,52.26-3.45,6.64-.38,13.37.33,20-.28,16.26-1.5,32.13.56,47.94,4.07,2.58.57,3.32,1.62,3,3.91-.9,5.9-1.66,11.84-2.83,17.7-.51,2.53-2.25,4.82-2.77,7.35-.91,4.48-1.21,9.09-2,13.6-2.78,15.75-5.75,31.48-8.43,47.25-.42,2.46.35,5.11.47,7.68a24.17,24.17,0,0,1,0,6.19c-1.2,5.23-3.09,10.32-4.07,15.58a97.12,97.12,0,0,0-1.15,14.08c-.14,3.78.1,7.56-2.76,10.63a2.43,2.43,0,0,0-.42,2c1.14,3.92,0,6.76-3.72,8.07.79,2,2,3.64,2,5.28-.1,6.35.26,12.66-2.47,18.88-1.89,4.29-3.44,9.74-2.41,14a27.59,27.59,0,0,1,.1,12.19c-1,5.4-2.76,10.68-3.76,16.08-.49,2.68,0,5.53,0,8.31-.23,1.28-2.27,2.66-2.28,4a65.9,65.9,0,0,0,1.3,11.32c.5,3,2.78,6.16-1.64,8.41-2.29,1.17-2,6.2,0,8.08.77.71,1.84,1.61,1.9,2.48.22,3.29.09,6.6.09,10.11h-4.15a8.22,8.22,0,0,0,.59,2.66c2.83,4.1,4.38,8-.09,12.18-1.79,1.67-.83,3.5,1.64,4.39,1.12.4,2.86,1.42,2.86,2.16,0,3.54-.62,7.08-.82,10.62-.29,5.11-.56,10.22-.56,15.33,0,4.29.39,8.57.63,12.85.13,2.2.26,4.41.52,6.6.28,2.42,1.85,5.89.82,7-1.75,1.85-1,3-.75,4.71.59,5,1.11,10.1,1.52,15.16.18,2.15-.31,4.39.06,6.5,1.05,6,3.56,12,3.37,18-.38,12.24,3.11,23.71,5.21,35.46.48,2.71,1.59,5.3,2.1,8,1,5.2,1.56,10.48,2.68,15.65a6,6,0,0,0,3,3.91c2.91,1.09,3.44,3,3.82,5.73a90.86,90.86,0,0,0,3,13.81c1,3.48,3.22,3.72,5.92,1.28a40.48,40.48,0,0,1,4.87-3.91c4.63-3.07,4.58-8.13,1.06-12.45a19.66,19.66,0,0,1-4.35-10.76c-.37-8.62.85-17.31.58-25.94-.25-7.71-1.63-15.38-2.47-23.08a24.58,24.58,0,0,1,.05-3.32c.29-9.31.79-18.61.79-27.92,0-11.38-.61-22.76-.64-34.15,0-7.66.46-15.33.78-23,.2-4.81.54-9.62.76-14.43a40.9,40.9,0,0,0-.07-4.14c-.16-2.76-.72-5.54-.48-8.25,1.25-14,2.71-28,4.09-42,1.43-14.54,2.69-29.11,4.33-43.63q2.13-18.92,5-37.75c2.58-17,5.51-33.94,8.25-50.91,1.25-7.8,2.36-15.61,3.52-23.42.73-5,1.42-9.93,2.13-14.89a1.57,1.57,0,0,1,.25-.79c4.85-5.41,2.42-12.54,4.41-18.65,1.11-3.43,1.15-7.21,2.26-10.65,1.51-4.71,3.57-9.25,5.39-13.86,1.14-2.9.94-5-3-4.48,2-5.27,3.84-6.27,6.9-3.79.66-3.07,1.31-6.36,5.29-6.45a72.73,72.73,0,0,1,10.42.66c8.68,1.08,17.31,2.94,26,3.32,11.33.5,21.88,4.16,32.78,6.42,5.8,1.21,11.5,3.63,17.32,3.94,8.36.44,15.36,5.56,23.69,5.67,1.4,0,3.25,1.43,4.08,2.71,3.31,5.12,8.51,6.89,13.89,8.32,4.41,1.17,8.91,2,13.4,2.89,3.64.69,7.37,1,11,1.76,5.92,1.32,11.48,4.32,18,2.81,5.52-1.28,11.79-.74,16.64-3.17,6.26-3.13,11.42-8.43,17.08-12.75,1-.75,2.15-1.28,3.19-1.94,1.75-1.1,3.43-2.33,5.24-3.33a29.05,29.05,0,0,1,6.3-3c4-1.05,8.38-1.12,12.26-2.52,7.31-2.62,14.73-2.21,22.25-2.33,6.36-.1,13.1-.22,18.91-2.38a28.73,28.73,0,0,1,13.3-1.82c5.86.57,11.67,1.62,17.49,2.5.16,0,.26.42.53.89a6.54,6.54,0,0,0-2.32.81,40.67,40.67,0,0,0-3.1,3.57c1.39.65,2.73,1.62,4.19,1.88,2.32.42,5.17-.39,7,.68,4.48,2.62,8.66,1,13,.15.87-.18,2.34-.91,2.31-1.29a3.83,3.83,0,0,0-1.38-2.74c-4.63-2.72-9.4-5.19-14.07-7.85a28.76,28.76,0,0,1-3.43-2.67l.61-1.17a28.42,28.42,0,0,1,3.93.37c8.35,2,16.66,4.06,25,5.88,1.24.27,2.77-.74,4.17-1.15C1580.12,150.27,1579.56,148.55,1578.49,148.12ZM819,234.9a5.88,5.88,0,0,1-3.32,4c-8.66,2.94-17.46,5.49-26.19,8.21q-20.14,6.27-40.26,12.6c-4.65,1.47-9.18,3.35-13.88,4.58-2.22.59-4.45,1.15-6.69,1.71q-5,1.25-10.06,2.43l-3.37.78-6.73,1.54a2.79,2.79,0,0,1-2.79-.56,1.54,1.54,0,0,1-.27-.36,3.56,3.56,0,0,1-.26-2.45q1.13-6.06,2.32-12.11t2.38-12.09c.05-.27.12-.54.18-.81.13-.53.28-1.07.41-1.6l.18-.81c.33-1.8.67-3.61,1-5.41q1-5.41,2-10.83c.33-1.81.65-3.61,1-5.42.53-3,.59-6.13,1.22-9.13s1.21-5.71,1.83-8.57c1.85-8.57,3.76-17.12,5.58-25.69a41.89,41.89,0,0,0,.91-7.49,22.47,22.47,0,0,1,.22-2.53q.12-.81.3-1.59a21.25,21.25,0,0,1,.66-2.22,18.07,18.07,0,0,1,.9-2.06,19.86,19.86,0,0,1,3.42-4.74l.52-.53a29,29,0,0,1,3.47-2.91h0c.42-.31.84-.6,1.27-.88.87-.58,1.77-1.13,2.7-1.66,2.36-1.35,4.15-1.55,5.31-.69l.26.23c.87.85,1.3,2.4,1.28,4.61,0,1.53-.19,3.07-.29,4.6-1,7.17,2.65,13,5.6,19a5.5,5.5,0,0,0,.75,1.16c2,2.45,5.78,2.92,10.12,1.39,2.31-.82,4.86-1.91,6.46-3.65,8.31-9,16.33-18.26,19.36-30.74a5.74,5.74,0,0,1,1.33-2.32,3.89,3.89,0,0,1,.34-.36,11.92,11.92,0,0,1,3.61-2.5c.91-.39,3,.77,4.31,2,.09.08.17.17.25.25a4.31,4.31,0,0,1,.41.5c.72,1,1.43,2,2.14,3s1.38,2,2,3,1.33,2.05,2,3.09,1.27,2.08,1.88,3.14,1.19,2.14,1.76,3.23l.84,1.64c.53,1.11,1,2.23,1.54,3.38.74,1.71,1.43,3.47,2,5.29q1.61,4.73,2.86,9.48a169,169,0,0,1,4.29,22.39c.81,6.45,1.29,13,1.52,19.52A111,111,0,0,1,819,234.9Zm350.32,239.57a6.42,6.42,0,0,1-.6-.42l-.28-.22a2.89,2.89,0,0,1-.25-.24,4,4,0,0,1-.93-4.24.66.66,0,0,1,.21-.3,2.09,2.09,0,0,1,.54-.33c.48-.22,1.09-.4,1.53-.64q1.22,3.17,2.41,6.31l-1.61.62C1170,474.84,1169.69,474.66,1169.36,474.47Zm7.81,86q-3-21.53-6-43l2.26-.27q2.31,21.6,4.61,43.2Zm330.9-420.64c5.88,2.06,12.39-1.72,18.12,2.46.75.56,2.31.19,3.47,0,5.48-.83,10.78-.85,15.62,3.4C1540.65,147.92,1522.77,145.2,1508.07,139.88Z" style="fill:#FFFFFF"/><path d="M663.52,84.29c-.44-2.28-1.62-4.42-2-6.71-1.23-6.73-5.16-9-11.26-6.41-1.27.55-2.78.61-4,1.26A63.86,63.86,0,0,0,637.16,78c-3.36,2.66-6.16,6-9.46,8.79-7.88,6.6-16.25,12.72-19.23,23.36a12.54,12.54,0,0,1-2.23,4c-5,6.52-10,13-15.08,19.44-4.85,6.1-9.83,12.11-14.8,18.12-7.18,8.68-14.34,17.37-21.62,26-4.22,5-8.77,9.71-13,14.72-11.73,14-23.29,28.1-35,42.07-5.2,6.19-10.81,12-16,18.25-6.59,7.91-12.94,16-19.33,24.1-8,10.16-16.83,19.86-23.75,30.74-5.77,9.06-9.27,19.56-13.84,29.39-5.45,11.69,1.44,22.84,14.43,23.69,8.9.57,17.78,1.14,26.49-1.64a8.92,8.92,0,0,1,4.13-.33c6,1.07,11.84,1.51,17.78-.18,1.58-.45,3.35-.17,5-.42,13.22-2,26.5-3.75,39.63-6.23,7.76-1.47,11.26-.43,15.51,6.23,6.18,9.68,7.19,20.68,6.7,31.44-.78,17.39-6.61,33.87-12,50.29-1.2,3.6-3.39,5.76-8.16,5.16a145.26,145.26,0,0,0-23.4-1.12c-10.45.37-20.93,1.2-31.3,2.57-16.73,2.2-33.39,4.95-50.06,7.55-14.89,2.31-29.73,4.92-44.64,7.05-16.58,2.37-33.11,5.43-50,4.93-3.39-.1-5.16-1.09-5.67-4.59-1.95-13.4-4.6-26.71-5.95-40.16a393.71,393.71,0,0,1-2.45-44.33c.39-28.91,1.9-57.8,2.78-86.7,1-32.52,4.05-65,.66-97.58-.83-7.9.82-16.25-4.39-23.52-2.05-2.86.58-4.7,3.28-5.28,12.53-2.68,25.07-5.33,37.64-7.78,8.48-1.65,17.09-2.65,25.52-4.52,10-2.22,19.86-5.36,29.9-7.53,7.46-1.61,15.15-2.13,22.68-3.45,11-1.92,22.29-3,32.7-6.57,7.82-2.7,15.7-3.59,23.57-5,10.05-1.85,20.23-1.78,30.44-1.11s18.61,4.2,23,14.28a34.83,34.83,0,0,0,2.13,3.61c1.63,2.76,3.53,2.49,5.85.76,3.78-2.81,5.1-6.75,5.84-11.14a14,14,0,0,1,2-5.33c3-4.57,2.56-16.9-1-21.06-10.8-12.62-25.27-17.73-41.13-18.68-12.5-.75-25.1-.13-37.65.34-10.44.38-20.91,1.06-31.29,2.27-14.5,1.71-28.92,4.08-43.4,6.07-6.07.83-12.2,1.23-18.26,2.13-11.58,1.72-23.13,3.68-34.7,5.51-10.85,1.71-21.74,3.25-32.57,5.1s-21.83,4.21-32.78,6q-24.94,4.2-50,8c-15.61,2.34-31,5.88-46.56,8.61C188.44,137,172.48,139.63,158,147.1c-4.5,2.31-8.92,4.86-13.61,6.72-12.06,4.77-18.33,15.88-15.58,28.27,2.65,11.94,12,17.63,23.78,14.88q16.84-3.91,33.82-7.24c16-3.13,32.09-6.07,48.16-8.95,18.09-3.24,36.21-6.34,54.33-9.45.72-.13,1.53.28,2.85.55a40.69,40.69,0,0,0-2,4.74c-1.13,3.95-3,8-2.93,11.91.3,11.72,1.94,23.41,2.11,35.12.22,14.79-.54,29.59-.82,44.39-.17,9.23-.17,18.45-.36,27.68-.43,21.93-1.61,43.87-1.22,65.79.42,24,2.14,47.95,3.56,71.9.32,5.53,1.55,11,2.63,16.48,1.24,6.29,2.79,12.51,4.19,18.76.57,2.54.16,4.42-2.94,4.81-7.15.91-14.3,1.77-21.41,2.89-16.77,2.64-33.59,5-50.25,8.24C203.06,488.26,184,492.26,165,496.9a344.71,344.71,0,0,0-40,12.19c-6.41,2.42-11.75,7.66-17.55,11.66a2.49,2.49,0,0,0-.87,1.37c-1.51,6.18-3.7,12.26-2.44,18.82.86,4.44,2.54,8.39,6.85,10.41,4.94,2.31,10.08,1.65,15.15.24,9.53-2.64,19-5.67,28.61-7.87,15.37-3.51,30.88-6.36,46.29-9.69,16.35-3.53,32.55-7.89,49-10.81,18.53-3.27,37.29-5.3,55.93-8,4.78-.68,7.92.64,10.64,5.08a30,30,0,0,0,9.9,9.75,15.29,15.29,0,0,0,15.53.38c2.35-1.23,3.66-2,4-4.8.74-5.71,4.12-10.6,9.14-12.61,6.25-2.51,13.18-3.41,19.88-4.66,8.22-1.53,16.65-2.16,24.74-4.16,11.73-2.88,23.25-6.61,34.85-10,21.65-6.38,43.16-13.26,65-19,11.4-3,23.32-4,35-5.81,2.52-.4,3.88.69,2.88,3.39-1.28,3.49-2.48,7-4.07,10.38-7.34,15.49-14.69,31-22.27,46.35-5.84,11.86-12,23.58-18.1,35.3-4.89,9.37-10.09,18.58-14.89,28-3.48,6.82-6.5,13.87-9.81,20.77-4.47,9.35-9,18.66-13.5,28h22.59a28.35,28.35,0,0,1,2.55-2.73c.56-.53.66-1.52,1-2.27,4.36-8.57,8.5-17.25,13.15-25.65,6.68-12.07,13.87-23.86,20.6-35.91,6.18-11.07,12-22.31,18-33.48,7.82-14.6,16.05-29,23.29-43.86,6.13-12.6,11.44-25.63,16.47-38.71,5.35-13.9,10.19-28,14.77-42.18a132.58,132.58,0,0,0,5.13-22c1.76-12.31,2.5-24.73.49-37.14-2.63-16.3-7.28-31.59-21.51-41.9-7.23-5.24-15.34-8.37-24.31-6.75q-29,5.24-57.93,11.33a76,76,0,0,1-24,1.49c-3-.32-4-1.85-2.16-4.54a46.68,46.68,0,0,1,4.12-5.25c7.06-7.5,14.24-14.89,21.28-22.39,3.72-4,7.09-8.27,10.92-12.12,12.6-12.65,25.35-25.15,38-37.74,6.43-6.39,12.64-13,19.18-19.26,6.8-6.52,14-12.6,20.8-19.14s13.43-13.72,20.28-20.44c5.88-5.76,12.24-11,17.9-17,4.87-5.11,8.48-11.5,13.67-16.2,10.64-9.63,17-22.36,25.1-33.72,4.52-6.31,7.09-14.13,9.87-21.51C665.12,90.24,664,87,663.52,84.29ZM124.23,526.72c-2.91-.47-2.88-2.44-1.41-6l3.78,4.49C125.8,525.72,124.92,526.83,124.23,526.72ZM295.47,246.4c-1-.75-2.7-1.31-3-2.28a46.51,46.51,0,0,1-1.15-7c.1-1.61-.15-2.67.26-3.22a16.38,16.38,0,0,1,2.88-2.47c.69.86,1.84,1.65,2,2.6a64.39,64.39,0,0,1,.77,9.5C297.22,244.48,296.09,245.44,295.47,246.4Z" style="fill:#FFFFFF"/><path d="M607.38,182.14l7.87-4.43.93,1.59-7.74,4.42Z" style="fill:#FFFFFF"/><path d="M718.64,268.42q5-1.19,10.06-2.43C725.35,266.83,722,267.63,718.64,268.42Z" style="fill:#FFFFFF"/><path d="M749.86,176a5.93,5.93,0,0,0,.75,1.16A5.5,5.5,0,0,1,749.86,176Z" style="fill:#FFFFFF"/><path d="M818.17,199.49a169,169,0,0,0-4.29-22.39A167.4,167.4,0,0,1,818.17,199.49Z" style="fill:#FFFFFF"/><path d="M1545.29,145.75c-4.64,2.18-22.63-.57-37.35-5.92,5.91,2.16,12.48-1.71,18.24,2.51.76.56,2.33.18,3.48,0C1535.15,141.52,1540.44,141.5,1545.29,145.75Z" style="fill:#FFFFFF"/><path d="M1173.43,517.19q2.29,21.6,4.61,43.21l-.87.12q-3-21.53-6-43Z" style="fill:#FFFFFF"/><path d="M1170.39,475c-2.38-1.1-4-2.78-3.08-5.67.17-.59,1.49-.85,2.28-1.26l2.41,6.31Z" style="fill:#FFFFFF"/><path d="M291.32,237.11c.1-1.61-.16-2.67.26-3.23a16.32,16.32,0,0,1,2.87-2.46c.7.86,1.85,1.65,2,2.6a63,63,0,0,1,.76,9.5c0,1-1.13,1.91-1.74,2.87-1-.74-2.71-1.3-3-2.28A45.16,45.16,0,0,1,291.32,237.11Z" style="fill:#FFFFFF"/><path d="M122.82,520.68l3.77,4.48c-.79.56-1.68,1.67-2.36,1.56C121.32,526.24,121.35,524.28,122.82,520.68Z" style="fill:#FFFFFF"/></svg>
